<svg xmlns="http://www.w3.org/2000/svg" version="1.1" xmlns:xlink="http://www.w3.org/1999/xlink" xmlns:svgjs="http://svgjs.dev/svgjs" width="1000" height="623" viewBox="0 0 1000 623"><g transform="matrix(1,0,0,1,-0.6060606060606233,0.2522267206477409)"><svg viewBox="0 0 396 247" data-background-color="#0c1d36" preserveAspectRatio="xMidYMid meet" height="623" width="1000" xmlns="http://www.w3.org/2000/svg" xmlns:xlink="http://www.w3.org/1999/xlink"><g id="tight-bounds" transform="matrix(1,0,0,1,0.2400000000000091,-0.09999999999999432)"><svg viewBox="0 0 395.52 247.2" height="247.2" width="395.52"><g><svg></svg></g><g><svg viewBox="0 0 395.52 247.2" height="247.2" width="395.52"><g><path xmlns="http://www.w3.org/2000/svg" d="M55.039 247.2l26.403-45.732h7.584l-22.403 38.804h262.274l-22.403-38.804 7.584 0 26.403 45.732zM197.76 0l26.403 45.732-7.583 0-18.82-32.596-18.82 32.596-7.583 0z" fill="#f9cc0b" fill-rule="nonzero" stroke="none" stroke-width="1" stroke-linecap="butt" stroke-linejoin="miter" stroke-miterlimit="10" stroke-dasharray="" stroke-dashoffset="0" font-family="none" font-weight="none" font-size="none" text-anchor="none" style="mix-blend-mode: normal" data-fill-palette-color="tertiary"></path></g><g transform="matrix(1,0,0,1,71.40765505020674,67.97999999999999)"><svg viewBox="0 0 252.7046898995865 111.24" height="111.24" width="252.7046898995865"><g><svg viewBox="0 0 252.7046898995865 111.24" height="111.24" width="252.7046898995865"><g><svg viewBox="0 0 252.70468989958653 111.24000000000001" height="111.24" width="252.7046898995865"><g><svg viewBox="0 0 252.70468989958653 111.24000000000001" height="111.24000000000001" width="252.70468989958653"><g id="textblocktransform"><svg viewBox="0 0 252.70468989958653 111.24000000000001" height="111.24000000000001" width="252.70468989958653" id="textblock"><g><svg viewBox="0 0 252.70468989958653 111.24000000000001" height="111.24000000000001" width="252.70468989958653"><g transform="matrix(1,0,0,1,0,0)"><svg width="252.70468989958653" viewBox="3.299999952316284 -54.400001525878906 192.2899932861328 84.6500015258789" height="111.24000000000001" data-palette-color="#f9cc0b"><path d="M23.25-18.55Q27-18.15 29.4-16 31.8-13.85 31.8-10.4L31.8-10.4Q31.8-7.7 30.28-5.13 28.75-2.55 25.63-0.85 22.5 0.85 17.9 0.85L17.9 0.85Q14.65 0.85 11.8 0.03 8.95-0.8 7.4-2L7.4-2Q7.05-1 6.55-0.68 6.05-0.35 5.3-0.35L5.3-0.35Q4.95-0.35 4.67-0.45 4.4-0.55 3.9-0.75L3.9-0.75Q5-2.7 5.5-4.8L5.5-4.8Q11.8-30.85 11.8-32.85L11.8-32.85Q11.8-33.15 11.63-33.27 11.45-33.4 11-33.4L11-33.4Q10.2-33.4 7.8-32.9L7.8-32.9Q5.5-32.4 4.8-32.4L4.8-32.4Q3.3-32.4 3.3-33.8L3.3-33.8Q3.3-34.3 3.38-34.85 3.45-35.4 3.6-35.85L3.6-35.85Q4.05-35.4 4.7-35.3 5.35-35.2 7.3-35.15L7.3-35.15 12.2-35.05Q12.4-35.05 12.8-35.02 13.2-35 14.15-35L14.15-35Q19.95-34.85 23.3-34.45 26.65-34.05 28.9-32.58 31.15-31.1 31.15-28L31.15-28Q31.15-24.9 28.98-22.33 26.8-19.75 23.25-18.55L23.25-18.55ZM17.3-1.2Q20.75-1.2 23.33-2.43 25.9-3.65 27.28-5.73 28.65-7.8 28.65-10.3L28.65-10.3Q28.65-13.45 26.45-15.25 24.25-17.05 20.4-17.05L20.4-17.05Q17.1-17.05 15.5-16.85L15.5-16.85Q14.95-16.95 14.9-18.05L14.9-18.05 14.9-18.4Q14.9-19.25 15.25-19.55L15.25-19.55Q15.6-19.55 16.75-19.45 17.9-19.35 18.8-19.35L18.8-19.35Q22.8-19.35 25.43-21.45 28.05-23.55 28.05-27.1L28.05-27.1Q28.05-30.5 25.4-31.98 22.75-33.45 17.9-33.45L17.9-33.45Q16.2-33.45 15.45-33.13 14.7-32.8 14.25-31.83 13.8-30.85 13.1-28.2L13.1-28.2Q10.55-18.65 7.9-4.4L7.9-4.4Q11.9-1.2 17.3-1.2L17.3-1.2ZM65.05-54.4Q69.35-54.4 71.85-52.03 74.35-49.65 74.35-45.35L74.35-45.35 74-44.75Q72.9-48.15 70.55-49.78 68.2-51.4 64.9-51.4L64.9-51.4Q57.95-51.4 53.1-43.58 48.25-35.75 44.7-21L44.7-21 43.4-15.35 42.75-12.45Q44.8-15.35 47.95-18.07 51.1-20.8 52.7-20.8L52.7-20.8Q53.1-20.8 53.87-20.05 54.65-19.3 54.65-18.95L54.65-18.95Q53.7-16.2 52.4-10.9 51.1-5.6 51.1-4.15L51.1-4.15Q51.1-2.75 51.55-2.13 52-1.5 53.4-1.5L53.4-1.5Q55.9-1.5 58.25-3.4 60.6-5.3 62.32-7.73 64.05-10.15 64.95-12L64.95-12Q65.3-11.9 65.5-11.65 65.7-11.4 65.75-10.9L65.75-10.9 65.75-10.75Q65.75-10.15 65.35-9.35L65.35-9.35Q63.05-5.15 59.45-2.27 55.85 0.6 52.45 0.6L52.45 0.6Q50.7 0.6 49.65-0.5 48.6-1.6 48.6-3.6L48.6-3.6Q48.6-5.55 49.22-8.4 49.85-11.25 50.9-15.1L50.9-15.1Q50.85-14.85 51.45-17.15L51.45-17.15Q51.4-17.35 51.2-17.5 51-17.65 50.85-17.65L50.85-17.65Q50.35-17.65 48.5-16 46.65-14.35 44.75-12.05 42.85-9.75 41.9-7.75L41.9-7.75Q41.4-5.75 40.9-2.75L40.9-2.75Q40.85-2.4 40.8-2 40.75-1.6 40.65-1.2L40.65-1.2Q40.5-0.3 40.37 0.03 40.25 0.35 39.95 0.35L39.95 0.35Q39.35 0.35 38.6 0.05 37.85-0.25 37.85-0.7L37.85-0.7Q37.85-1.35 38.15-2.6L38.15-2.6 42.5-21.05Q46.15-36.65 51.8-45.53 57.45-54.4 65.05-54.4L65.05-54.4ZM90.95-11.55Q91.59-11.55 91.59-10.25L91.59-10.25Q91.59-7.95 89.57-5.4 87.55-2.85 84.67-1.13 81.8 0.6 79.4 0.6L79.4 0.6Q77.45 0.6 76.4-0.6 75.35-1.8 75.15-3.7L75.15-3.7Q73.9-1.9 72-0.75 70.1 0.4 68.6 0.4L68.6 0.4Q67.3 0.4 66.02-0.48 64.75-1.35 63.95-2.63 63.15-3.9 63.1-5.05L63.1-5.05 65.55-15.15Q65.85-16.35 67.07-17.73 68.3-19.1 70.05-20 71.8-20.9 73.6-20.9L73.6-20.9Q75.9-20.9 77.65-19.35L77.65-19.35Q78.1-20.55 78.32-20.85 78.55-21.15 79-21.2L79-21.2 81.45-21.45 81.6-21.35Q80.6-20.55 80.15-18.85L80.15-18.85Q78.6-13.05 78.02-10.3 77.45-7.55 77.45-5.45L77.45-5.45Q77.45-3.35 78-2.38 78.55-1.4 79.85-1.4L79.85-1.4Q81.45-1.4 83.67-2.7 85.9-4 87.9-6.33 89.9-8.65 90.95-11.55L90.95-11.55ZM68.8-1.95Q69.65-1.95 70.87-2.55 72.1-3.15 73.17-4.28 74.25-5.4 74.65-6.85L74.65-6.85 75.6-10.95Q75.8-11.95 76.3-14.18 76.8-16.4 77.1-17.6L77.1-17.6Q75.7-19 73.7-19L73.7-19Q72.15-19 70.9-18.18 69.65-17.35 68.85-16.18 68.05-15 67.85-14.1L67.85-14.1 65.85-5.2Q65.95-3.95 66.85-2.95 67.75-1.95 68.8-1.95L68.8-1.95ZM104.79-22.75Q105.39-22.15 105.99-21.75L105.99-21.75Q106.49-21.35 106.67-21.13 106.84-20.9 106.84-20.5L106.84-20.5Q106.84-20.1 106.64-19.5L106.64-19.5Q105.64-15.65 103.99-8.45L103.99-8.45Q102.89-3.55 101.99-0.05L101.99-0.05Q99.39 10.5 96.67 16.95 93.94 23.4 89.87 26.83 85.79 30.25 79.69 30.25L79.69 30.25Q75.69 30.25 72.94 28.88 70.19 27.5 68.89 25.4 67.59 23.3 67.59 21.1L67.59 21.1Q67.59 20.6 67.69 20.28 67.79 19.95 68.19 19.3L68.19 19.3Q71.14 27.35 79.79 27.35L79.79 27.35Q85.19 27.35 88.79 24.18 92.39 21 94.84 15.23 97.29 9.45 99.69 0L99.69 0 99.94-1Q100.04-1.4 100.14-1.75 100.24-2.1 100.29-2.45L100.29-2.45Q98.89-1.1 97.04-0.35 95.19 0.4 93.94 0.4L93.94 0.4Q92.64 0.4 91.42-0.45 90.19-1.3 89.44-2.58 88.69-3.85 88.69-5.05L88.69-5.05Q88.99-6.25 89.39-8.1 89.79-9.95 89.99-10.95L89.99-10.95 91.19-16.35Q91.44-17.4 92.79-18.6 94.14-19.8 95.87-20.6 97.59-21.4 98.84-21.4L98.84-21.4Q100.19-21.4 101.49-20.4 102.79-19.4 103.79-17.75L103.79-17.75Q104.09-19.15 104.34-21.05L104.34-21.05 104.59-22.7 104.79-22.75ZM101.29-6.85L103.19-15.1Q102.24-16.95 101.02-18.05 99.79-19.15 98.64-19.15L98.64-19.15Q97.84-19.15 96.69-18.63 95.54-18.1 94.59-17.23 93.64-16.35 93.39-15.3L93.39-15.3Q93.04-13.8 92.09-8.6L92.09-8.6 91.49-5.2Q91.49-4 92.37-2.95 93.24-1.9 94.39-1.9L94.39-1.9Q95.24-1.9 96.79-2.5 98.34-3.1 99.64-4.23 100.94-5.35 101.29-6.85L101.29-6.85ZM148.39-19.25Q148.74-19.1 148.74-18.4L148.74-18.4Q148.74-16.3 146.39-14.93 144.04-13.55 140.94-13.55L140.94-13.55Q137.49-13.55 135.09-15.5L135.09-15.5Q135.74-13.65 135.74-11.2L135.74-11.2Q135.74-8.05 134.64-5.45 133.54-2.85 131.64-1.38 129.74 0.1 127.44 0.1L127.44 0.1Q125.29 0.1 124.07-1.05 122.84-2.2 122.24-3.7L122.24-3.7Q121.09-1.65 119.42-0.65 117.74 0.35 116.19 0.35L116.19 0.35Q114.54 0.35 113.32-0.65 112.09-1.65 111.47-2.85 110.84-4.05 110.84-4.6L110.84-4.6Q111.34-7.35 112.44-11.4 113.54-15.45 114.39-18.2L114.39-18.2Q114.79-19.4 115.29-20.08 115.79-20.75 116.84-20.75L116.84-20.75Q117.59-20.75 117.84-20.15L117.84-20.15Q116.54-17.7 115.19-12.93 113.84-8.15 113.39-4.9L113.39-4.9Q114.14-1.8 116.44-1.8L116.44-1.8Q118.04-1.8 119.67-3.28 121.29-4.75 122.19-8L122.19-8Q122.59-9.6 123.22-12.5 123.84-15.4 124.24-17.55L124.24-17.55Q125.49-17.55 125.97-17.2 126.44-16.85 126.44-16L126.44-16Q126.44-15.05 125.59-11.95L125.59-11.95Q124.84-9.15 124.69-8.3L124.69-8.3Q124.24-6.05 124.24-4.6L124.24-4.6Q124.49-3.75 125.39-2.75 126.29-1.75 127.69-1.75L127.69-1.75Q129.04-1.75 130.37-2.83 131.69-3.9 132.57-6.05 133.44-8.2 133.44-11.15L133.44-11.15Q133.44-13.5 132.97-15.03 132.49-16.55 131.69-18.1L131.69-18.1Q131.24-19 131.19-19.15L131.19-19.15Q131.39-19.65 131.87-20.15 132.34-20.65 132.59-20.65L132.59-20.65Q132.79-20.65 133.14-20.18 133.49-19.7 133.59-19.6L133.59-19.6Q134.89-17.8 136.47-16.57 138.04-15.35 140.74-15.35L140.74-15.35Q142.94-15.35 145.04-16.35 147.14-17.35 148.39-19.25L148.39-19.25ZM172.64-11.55Q173.29-11.55 173.29-10.25L173.29-10.25Q173.29-7.95 171.26-5.4 169.24-2.85 166.36-1.13 163.49 0.6 161.09 0.6L161.09 0.6Q159.14 0.6 158.09-0.6 157.04-1.8 156.84-3.7L156.84-3.7Q155.59-1.9 153.69-0.75 151.79 0.4 150.29 0.4L150.29 0.4Q148.99 0.4 147.71-0.48 146.44-1.35 145.64-2.63 144.84-3.9 144.79-5.05L144.79-5.05 147.24-15.15Q147.54-16.35 148.76-17.73 149.99-19.1 151.74-20 153.49-20.9 155.29-20.9L155.29-20.9Q157.59-20.9 159.34-19.35L159.34-19.35Q159.79-20.55 160.01-20.85 160.24-21.15 160.69-21.2L160.69-21.2 163.14-21.45 163.29-21.35Q162.29-20.55 161.84-18.85L161.84-18.85Q160.29-13.05 159.71-10.3 159.14-7.55 159.14-5.45L159.14-5.45Q159.14-3.35 159.69-2.38 160.24-1.4 161.54-1.4L161.54-1.4Q163.14-1.4 165.36-2.7 167.59-4 169.59-6.33 171.59-8.65 172.64-11.55L172.64-11.55ZM150.49-1.95Q151.34-1.95 152.56-2.55 153.79-3.15 154.86-4.28 155.94-5.4 156.34-6.85L156.34-6.85 157.29-10.95Q157.49-11.95 157.99-14.18 158.49-16.4 158.79-17.6L158.79-17.6Q157.39-19 155.39-19L155.39-19Q153.84-19 152.59-18.18 151.34-17.35 150.54-16.18 149.74-15 149.54-14.1L149.54-14.1 147.54-5.2Q147.64-3.95 148.54-2.95 149.44-1.95 150.49-1.95L150.49-1.95ZM194.64-12.2Q195.14-12.2 195.36-11.78 195.59-11.35 195.59-10.8L195.59-10.8Q195.59-9 193.69-6.25 191.79-3.5 188.86-1.45 185.94 0.6 183.09 0.6L183.09 0.6Q181.29 0.6 180.31-0.3 179.34-1.2 179.34-3.05L179.34-3.05Q179.34-5.6 180.74-9.98 182.14-14.35 183.29-17.25L183.29-17.25Q183.09-17.55 182.89-17.55L182.89-17.55Q182.69-17.55 182.44-17.4L182.44-17.4Q181.54-16.85 179.49-14.95 177.44-13.05 175.49-10.95 173.54-8.85 172.84-7.55L172.84-7.55Q172.04-5.4 171.84-4.83 171.64-4.25 171.44-2.95L171.44-2.95 170.99-0.7Q170.94-0.55 170.89-0.33 170.84-0.1 170.76-0.05 170.69 0 170.54 0L170.54 0Q170.09 0 169.36-0.1 168.64-0.2 168.64-0.4L168.64-0.4Q168.64-1 168.99-2.35 169.34-3.7 169.69-4.8 170.04-5.9 170.24-6.5L170.24-6.5 170.69-7.9Q172.14-12.9 172.66-15.18 173.19-17.45 173.69-20.25L173.69-20.25Q173.74-20.75 174.39-20.75L174.39-20.75Q174.84-20.75 175.41-20.53 175.99-20.3 176.09-19.9L176.09-19.9Q175.89-19 175.36-16.85 174.84-14.7 174.09-12.1L174.09-12.1Q176.99-15.35 180.11-18 183.24-20.65 184.29-20.65L184.29-20.65Q184.79-20.65 185.49-20.15 186.19-19.65 186.34-19.2L186.34-19.2Q184.74-14.9 183.29-9.83 181.84-4.75 181.84-3.15L181.84-3.15Q181.84-1.4 183.84-1.4L183.84-1.4Q186.79-1.4 189.81-4.7 192.84-8 194.64-12.2L194.64-12.2Z" opacity="1" transform="matrix(1,0,0,1,0,0)" fill="#f9cc0b" class="wordmark-text-0" data-fill-palette-color="primary" id="text-0"></path></svg></g></svg></g></svg></g></svg></g></svg></g></svg></g></svg></g></svg></g><defs></defs></svg><rect width="395.52" height="247.2" fill="none" stroke="none" visibility="hidden"></rect></g></svg></g></svg>